<svg width="25" height="25" viewBox="0 0 25 25" fill="none" xmlns="http://www.w3.org/2000/svg">
<g id="contacts">
<mask id="mask0_1050_164" style="mask-type:alpha" maskUnits="userSpaceOnUse" x="0" y="0" width="25" height="25">
<rect id="Bounding box" x="0.666748" y="0.5" width="24" height="24" fill="#D9D9D9"/>
</mask>
<g mask="url(#mask0_1050_164)">
<path id="contacts_2" d="M4.91675 22.6921V21.1921H20.4167V22.6921H4.91675ZM4.91675 3.80762V2.30762H20.4167V3.80762H4.91675ZM12.6667 13.9999C13.4296 13.9999 14.0786 13.7323 14.6137 13.1971C15.1491 12.6618 15.4167 12.0127 15.4167 11.2499C15.4167 10.487 15.1491 9.83803 14.6137 9.30287C14.0786 8.76753 13.4296 8.49987 12.6667 8.49987C11.9039 8.49987 11.2549 8.76753 10.7197 9.30287C10.1844 9.83803 9.91675 10.487 9.91675 11.2499C9.91675 12.0127 10.1844 12.6618 10.7197 13.1971C11.2549 13.7323 11.9039 13.9999 12.6667 13.9999ZM4.9745 19.9999C4.46933 19.9999 4.04175 19.8249 3.69175 19.4749C3.34175 19.1249 3.16675 18.6973 3.16675 18.1921V6.80762C3.16675 6.30245 3.34175 5.87487 3.69175 5.52487C4.04175 5.17487 4.46933 4.99987 4.9745 4.99987H20.359C20.8642 4.99987 21.2917 5.17487 21.6417 5.52487C21.9917 5.87487 22.1667 6.30245 22.1667 6.80762V18.1921C22.1667 18.6973 21.9917 19.1249 21.6417 19.4749C21.2917 19.8249 20.8642 19.9999 20.359 19.9999H4.9745ZM7.07075 18.4999C7.82075 17.6947 8.66817 17.0768 9.613 16.6461C10.5578 16.2153 11.5757 15.9999 12.6667 15.9999C13.7577 15.9999 14.7757 16.2153 15.7205 16.6461C16.6653 17.0768 17.5127 17.6947 18.2627 18.4999H20.359C20.436 18.4999 20.5065 18.4678 20.5705 18.4036C20.6347 18.3396 20.6667 18.2691 20.6667 18.1921V6.80762C20.6667 6.73062 20.6347 6.66012 20.5705 6.59612C20.5065 6.53195 20.436 6.49987 20.359 6.49987H4.9745C4.8975 6.49987 4.827 6.53195 4.763 6.59612C4.69883 6.66012 4.66675 6.73062 4.66675 6.80762V18.1921C4.66675 18.2691 4.69883 18.3396 4.763 18.4036C4.827 18.4678 4.8975 18.4999 4.9745 18.4999H7.07075ZM9.36675 18.4999H15.9667C15.4834 18.1665 14.9626 17.9165 14.4042 17.7499C13.8459 17.5832 13.2667 17.4999 12.6667 17.4999C12.0667 17.4999 11.4876 17.5832 10.9292 17.7499C10.3709 17.9165 9.85008 18.1665 9.36675 18.4999ZM12.6667 12.4999C12.3192 12.4999 12.0241 12.3785 11.7812 12.1356C11.5382 11.8926 11.4167 11.5974 11.4167 11.2499C11.4167 10.9025 11.5382 10.6074 11.7812 10.3644C12.0241 10.1214 12.3192 9.99987 12.6667 9.99987C13.0142 9.99987 13.3094 10.1214 13.5522 10.3644C13.7952 10.6074 13.9167 10.9025 13.9167 11.2499C13.9167 11.5974 13.7952 11.8926 13.5522 12.1356C13.3094 12.3785 13.0142 12.4999 12.6667 12.4999Z" fill="#B3B3B3"/>
</g>
</g>
</svg>
