<svg width="24" height="25" viewBox="0 0 24 25" fill="none" xmlns="http://www.w3.org/2000/svg">
<g id="prescriptions">
<mask id="mask0_1050_158" style="mask-type:alpha" maskUnits="userSpaceOnUse" x="0" y="0" width="24" height="25">
<rect id="Bounding box" y="0.5" width="24" height="24" fill="#D9D9D9"/>
</mask>
<g mask="url(#mask0_1050_158)">
<path id="prescriptions_2" d="M17.1615 21.4193L18.4848 20.0865L16.4712 18.073L15.1385 19.3963C14.8475 19.6873 14.702 20.0244 14.702 20.4078C14.702 20.7911 14.8475 21.1283 15.1385 21.4193C15.4295 21.7103 15.7667 21.8558 16.15 21.8558C16.5333 21.8558 16.8705 21.7103 17.1615 21.4193ZM19.5288 19.0423L20.8615 17.7193C21.1525 17.4283 21.2964 17.0911 21.2932 16.7078C21.2901 16.3244 21.143 15.9873 20.852 15.6963C20.561 15.4116 20.2254 15.2677 19.8453 15.2645C19.4651 15.2612 19.1295 15.4051 18.8385 15.6963L17.5153 17.0288L19.5288 19.0423ZM18.2212 22.4885C17.6429 23.0667 16.9509 23.3542 16.1453 23.351C15.3394 23.3478 14.6474 23.0603 14.0693 22.4885C13.4974 21.9103 13.2099 21.2183 13.2068 20.4125C13.2036 19.6067 13.4911 18.9147 14.0693 18.3365L17.7788 14.627C18.3506 14.0552 19.0426 13.7693 19.8547 13.7693C20.6669 13.7693 21.3589 14.0552 21.9307 14.627C22.5089 15.2052 22.798 15.8972 22.798 16.703C22.798 17.5087 22.5089 18.2006 21.9307 18.7788L18.2212 22.4885ZM5.30775 21C4.80908 21 4.38308 20.8234 4.02975 20.4703C3.67658 20.1169 3.5 19.6909 3.5 19.1923V5.80775C3.5 5.30908 3.67658 4.88308 4.02975 4.52975C4.38308 4.17658 4.80908 4 5.30775 4H9.75775C9.82058 3.44483 10.0629 2.97275 10.4848 2.58375C10.9064 2.19458 11.4115 2 12 2C12.5948 2 13.1032 2.19458 13.525 2.58375C13.9468 2.97275 14.1859 3.44483 14.2423 4H18.6923C19.1909 4 19.6169 4.17658 19.9703 4.52975C20.3234 4.88308 20.5 5.30908 20.5 5.80775V11.4615C20.25 11.4102 20 11.3878 19.75 11.3943C19.5 11.4006 19.25 11.4223 19 11.4595V5.80775C19 5.71792 18.9712 5.64417 18.9135 5.5865C18.8558 5.52883 18.7821 5.5 18.6923 5.5H5.30775C5.21792 5.5 5.14417 5.52883 5.0865 5.5865C5.02883 5.64417 5 5.71792 5 5.80775V19.1923C5 19.2821 5.02883 19.3558 5.0865 19.4135C5.14417 19.4712 5.21792 19.5 5.30775 19.5H10.9115C10.868 19.75 10.843 20 10.8365 20.25C10.8302 20.5 10.8526 20.75 10.9037 21H5.30775ZM12 4.84625C12.2167 4.84625 12.3958 4.77542 12.5375 4.63375C12.6792 4.49208 12.75 4.31292 12.75 4.09625C12.75 3.87958 12.6792 3.70042 12.5375 3.55875C12.3958 3.41708 12.2167 3.34625 12 3.34625C11.7833 3.34625 11.6042 3.41708 11.4625 3.55875C11.3208 3.70042 11.25 3.87958 11.25 4.09625C11.25 4.31292 11.3208 4.49208 11.4625 4.63375C11.6042 4.77542 11.7833 4.84625 12 4.84625ZM7.25 9.36525V7.8655H16.75V9.36525H7.25ZM7.25 13.25V11.75H16.75V12.3788C16.6358 12.4558 16.5275 12.5388 16.425 12.628C16.3225 12.717 16.2142 12.8186 16.1 12.9328L15.7828 13.25H7.25ZM7.25 17.1345V15.6348H13.398L12.6442 16.3885C12.5173 16.5153 12.398 16.6397 12.2865 16.7615C12.175 16.8833 12.0712 17.0077 11.975 17.1345H7.25Z" fill="#FF0000"/>
</g>
</g>
</svg>
